<?xml version="1.0" ?><svg xmlns="http://www.w3.org/2000/svg" xmlns:xlink="http://www.w3.org/1999/xlink" version="1.1" viewBox="0 0 512 512" style="enable-background:new 0 0 512 512;" xml:space="preserve"><g id="_x30_7_x2C__sewing_machine_x2C__tailor_x2C__DIY_x2C__tailoring_x2C__hobbies_and_free_time_x2C__handcraft"><g><g><path style="fill:#FFFFFF;" d="M486,141h-25c-5.522,0-10,4.478-10,10s4.478,10,10,10h25c2.757,0,5,2.243,5,5v60     c0,2.757-2.243,5-5,5h-25c-5.522,0-10,4.478-10,10s4.478,10,10,10h25c13.785,0,25-11.215,25-25v-60     C511,152.215,499.785,141,486,141z"/><path style="fill:#FFFFFF;" d="M486,271h-25c-5.522,0-10,4.478-10,10s4.478,10,10,10h25c2.757,0,5,2.243,5,5v20     c0,2.757-2.243,5-5,5h-25c-5.522,0-10,4.478-10,10s4.478,10,10,10h25c13.785,0,25-11.215,25-25v-20     C511,282.215,499.785,271,486,271z"/><path style="fill:#FFFFFF;" d="M161,31h-60c-22.056,0-40,17.944-40,40v20c0,5.522,4.478,10,10,10s10-4.478,10-10V71     c0-11.028,8.972-20,20-20h60c11.028,0,20,8.972,20,20v20c0,5.522,4.478,10,10,10s10-4.478,10-10V71C201,48.944,183.056,31,161,31     z"/><path style="fill:#FFFFFF;" d="M181,361H11c-5.522,0-10,4.478-10,10v60c0,5.522,4.478,10,10,10h148.5     c17.369,0,31.5-14.131,31.5-31.5V371C191,365.478,186.522,361,181,361z M171,409.5c0,6.341-5.159,11.5-11.5,11.5H21v-40h150     V409.5z"/></g><g><path style="fill:#FFFFFF;" d="M401,81h-70V41c0-5.522-4.478-10-10-10s-10,4.478-10,10v40H51c-27.57,0-50,22.43-50,50v100     c0,18.604,12.767,34.282,30,38.734V276c0,15.824,10.56,29.223,25,33.537V331c0,5.522,4.478,10,10,10s10-4.478,10-10v-21.463     c14.44-4.314,25-17.712,25-33.537v-6.266c17.233-4.452,30-20.13,30-38.734c0-11.028,8.972-20,20-20h130c16.542,0,30,13.458,30,30     v120H181c-5.522,0-10,4.478-10,10s4.478,10,10,10c14.79,0,256.494,0,270,0v60c0,11.028-8.972,20-20,20H41     c-11.028,0-20-8.972-20-20v-10c0-5.522-4.478-10-10-10s-10,4.478-10,10v10c0,22.056,17.944,40,40,40h390     c22.056,0,40-17.944,40-40c0-7.788,0-282.223,0-290C471,112.401,439.599,81,401,81z M66,291c-8.271,0-15-6.729-15-15v-5h30v5     C81,284.271,74.271,291,66,291z M111,231c0,11.028-8.972,20-20,20H41c-11.028,0-20-8.972-20-20V131c0-16.542,13.458-30,30-30h90     v91.266C123.767,196.718,111,212.396,111,231z M331,361V241c0-27.57-22.43-50-50-50H161v-90h240c27.57,0,50,22.43,50,50v210H331z     "/><path style="fill:#FFFFFF;" d="M421,301h-60c-5.522,0-10,4.478-10,10s4.478,10,10,10h60c5.522,0,10-4.478,10-10     S426.522,301,421,301z"/><path style="fill:#FFFFFF;" d="M391,191c-22.056,0-40,17.944-40,40s17.944,40,40,40s40-17.944,40-40S413.056,191,391,191z      M391,251c-11.028,0-20-8.972-20-20s8.972-20,20-20s20,8.972,20,20S402.028,251,391,251z"/></g></g></g><g id="Layer_1"/></svg>